<?xml version="1.0" encoding="UTF-8"?>
<svg height="128px" viewBox="0 0 128 128" width="128px" xmlns="http://www.w3.org/2000/svg">
    <path d="m 27.902344 34.550781 h 77.023437 c 10.71875 0 19.40625 9.617188 19.40625 21.476563 v 38 c 0 11.863281 -8.6875 21.476562 -19.40625 21.476562 h -96.429687 v -59.476562 c 0 -11.859375 8.6875 -21.476563 19.40625 -21.476563 z m 0 0" fill="#3d3846"/>
    <path d="m 107.039062 105.378906 h -62.613281 c -8.710937 0 -15.773437 -8.089844 -15.773437 -18.074218 v -31.976563 c 0 -9.984375 7.0625 -18.074219 15.773437 -18.074219 h 78.382813 v 50.050782 c 0 9.984374 -7.058594 18.074218 -15.769532 18.074218 z m 0 0" fill="#241f31"/>
    <path d="m 109.730469 102.117188 h -62.609375 c -8.710938 0 -15.773438 -8.089844 -15.773438 -18.074219 v -31.976563 c 0 -9.980468 7.0625 -18.074218 15.773438 -18.074218 h 78.382812 v 50.050781 c 0 9.984375 -7.058594 18.074219 -15.773437 18.074219 z m 0 0" fill="#f6f5f4"/>
    <g fill="#deddda">
        <path d="m 47.132812 55.859375 h 62.589844 v 4.0625 h -62.589844 z m 0 0"/>
        <path d="m 47.132812 63.988281 h 62.589844 v 4.066407 h -62.589844 z m 0 0"/>
        <path d="m 47.132812 72.121094 h 62.589844 v 4.066406 h -62.589844 z m 0 0"/>
        <path d="m 47.132812 80.253906 h 62.589844 v 4.066406 h -62.589844 z m 0 0"/>
    </g>
</svg>
