<?xml version="1.0" encoding="UTF-8"?>
<svg height="128px" viewBox="0 0 128 128" width="128px" xmlns="http://www.w3.org/2000/svg" xmlns:xlink="http://www.w3.org/1999/xlink">
    <clipPath id="a">
        <rect height="128" width="128"/>
    </clipPath>
    <clipPath id="b">
        <rect height="128" width="128"/>
    </clipPath>
    <filter id="c" height="100%" width="100%" x="0%" y="0%">
        <feColorMatrix in="SourceGraphic" type="matrix" values="0 0 0 0 1 0 0 0 0 1 0 0 0 0 1 0 0 0 1 0"/>
    </filter>
    <mask id="d">
        <g clip-path="url(#b)" filter="url(#c)">
            <g clip-path="url(#a)">
                <path d="m 39.246094 12.496094 h 54.507812 c 14.222656 0 25.75 11.527344 25.75 25.75 v 50.507812 c 0 14.773438 -11.976562 26.75 -26.75 26.75 h -54.507812 c -14.222656 0 -25.75 -11.527344 -25.75 -25.75 v -50.507812 c 0 -14.773438 11.976562 -26.75 26.75 -26.75 z m 0 0" fill="#3d3846"/>
                <path d="m 62.597656 28.496094 h 15.90625 c 13.808594 0 25 11.191406 25 25 v 0.066406 c 0 13.804688 -11.191406 25 -25 25 h -15.90625 c -13.804687 0 -25 -11.195312 -25 -25 v -0.066406 c 0 -13.808594 11.195313 -25 25 -25 z m 0 0" fill="#3584e4"/>
                <path d="m 53.890625 49.285156 h 15.90625 c 13.804687 0 25 11.191406 25 25 v 0.066406 c 0 13.804688 -11.195313 25 -25 25 h -15.90625 c -13.808594 0 -25 -11.195312 -25 -25 v -0.066406 c 0 -13.808594 11.191406 -25 25 -25 z m 0 0" fill="#f6f5f4"/>
                <path d="m 55.683594 63.132812 v 6.359376 h 6.003906 v 3.335937 h -20.058594 v 1.691406 h 8.722656 l -0.011718 1.78125 l -0.015625 1.785157 l -3.214844 0.015624 l -3.222656 0.007813 v 12.71875 l 7.273437 -0.007813 l 7.269532 -0.015624 l 0.015624 -6.347657 l 0.011719 -6.347656 h -5.796875 v -3.589844 h 20.671875 v 3.386719 h -6.566406 v 12.769531 h 14.566406 l -0.011719 -6.375 l -0.015624 -6.371093 l -2.828126 -0.015626 l -2.839843 -0.007812 v -3.386719 h 5.285156 v -1.691406 h -16.925781 l 0.007812 -1.65625 l 0.015625 -1.652344 l 3.121094 -0.015625 l 3.113281 -0.007812 l -0.011718 -6.351563 l -0.015626 -6.34375 l -7.269531 -0.015625 l -7.273437 -0.007812 z m 12.261718 0.023438 v 4.078125 h -10.003906 v -8.152344 h 10.003906 z m 11.078126 21.136719 v 4.078125 h -10 v -8.15625 h 10 z m -22.875 0.152343 v 4.078126 h -10.003907 v -8.15625 h 10.003907 z m 0 0" fill="#3584e4"/>
            </g>
        </g>
    </mask>
    <mask id="e">
        <g filter="url(#c)">
            <rect fill-opacity="0.8" height="128" width="128"/>
        </g>
    </mask>
    <linearGradient id="f" gradientTransform="matrix(0 0.37 -0.98462 0 295.38501 -30.360001)" gradientUnits="userSpaceOnUse" x1="300" x2="428" y1="235" y2="235">
        <stop offset="0" stop-color="#f9f06b"/>
        <stop offset="1" stop-color="#f5c211"/>
    </linearGradient>
    <clipPath id="g">
        <rect height="128" width="128"/>
    </clipPath>
    <clipPath id="h">
        <rect height="128" width="128"/>
    </clipPath>
    <path d="m 39.246094 12.496094 h 54.507812 c 14.222656 0 25.75 11.527344 25.75 25.75 v 50.507812 c 0 14.773438 -11.976562 26.75 -26.75 26.75 h -54.507812 c -14.222656 0 -25.75 -11.527344 -25.75 -25.75 v -50.507812 c 0 -14.773438 11.976562 -26.75 26.75 -26.75 z m 0 0" fill="#3d3846"/>
    <path d="m 62.597656 28.496094 h 15.90625 c 13.808594 0 25 11.191406 25 25 v 0.066406 c 0 13.804688 -11.191406 25 -25 25 h -15.90625 c -13.804687 0 -25 -11.195312 -25 -25 v -0.066406 c 0 -13.808594 11.195313 -25 25 -25 z m 0 0" fill="#3584e4"/>
    <path d="m 53.890625 49.285156 h 15.90625 c 13.804687 0 25 11.191406 25 25 v 0.066406 c 0 13.804688 -11.195313 25 -25 25 h -15.90625 c -13.808594 0 -25 -11.195312 -25 -25 v -0.066406 c 0 -13.808594 11.191406 -25 25 -25 z m 0 0" fill="#f6f5f4"/>
    <path d="m 55.683594 63.132812 v 6.359376 h 6.003906 v 3.335937 h -20.058594 v 1.691406 h 8.722656 l -0.011718 1.78125 l -0.015625 1.785157 l -3.214844 0.015624 l -3.222656 0.007813 v 12.71875 l 7.273437 -0.007813 l 7.269532 -0.015624 l 0.015624 -6.347657 l 0.011719 -6.347656 h -5.796875 v -3.589844 h 20.671875 v 3.386719 h -6.566406 v 12.769531 h 14.566406 l -0.011719 -6.375 l -0.015624 -6.371093 l -2.828126 -0.015626 l -2.839843 -0.007812 v -3.386719 h 5.285156 v -1.691406 h -16.925781 l 0.007812 -1.65625 l 0.015625 -1.652344 l 3.121094 -0.015625 l 3.113281 -0.007812 l -0.011718 -6.351563 l -0.015626 -6.34375 l -7.269531 -0.015625 l -7.273437 -0.007812 z m 12.261718 0.023438 v 4.078125 h -10.003906 v -8.152344 h 10.003906 z m 11.078126 21.136719 v 4.078125 h -10 v -8.15625 h 10 z m -22.875 0.152343 v 4.078126 h -10.003907 v -8.15625 h 10.003907 z m 0 0" fill="#3584e4"/>
    <g clip-path="url(#h)" mask="url(#d)">
        <g clip-path="url(#g)" mask="url(#e)">
            <path d="m 128 80.640625 v 47.359375 h -128 v -47.359375 z m 0 0" fill="url(#f)"/>
            <path d="m 13.308594 80.640625 l 47.355468 47.359375 h 21.214844 l -47.359375 -47.359375 z m 42.421875 0 l 47.363281 47.359375 h 21.214844 l -47.363282 -47.359375 z m 42.429687 0 l 29.839844 29.839844 v -21.210938 l -8.628906 -8.628906 z m -98.160156 7.90625 v 21.214844 l 18.238281 18.238281 h 21.214844 z m 0 0"/>
        </g>
    </g>
</svg>
