<?xml version="1.0" encoding="UTF-8"?>
<svg height="16px" viewBox="0 0 16 16" width="16px" xmlns="http://www.w3.org/2000/svg">
    <path d="m 5.9375 4.199219 v 2.265625 h 2.136719 v 1.1875 h -7.144531 v 0.601562 h 3.105468 l -0.003906 0.632813 l -0.003906 0.636719 l -1.144532 0.003906 l -1.148437 0.003906 v 4.527344 h 2.589844 l 2.589843 -0.003906 l 0.007813 -4.523438 h -2.0625 v -1.277344 h 7.359375 v 1.207032 h -2.335938 v 4.546874 h 5.1875 l -0.007812 -4.539062 l -1.011719 -0.003906 l -1.007812 -0.003906 v -1.207032 h 1.878906 v -0.601562 h -6.027344 l 0.003907 -0.589844 l 0.003906 -0.585938 l 1.113281 -0.003906 l 1.105469 -0.003906 l -0.007813 -4.523438 l -2.585937 -0.003906 h -2.589844 z m 4.363281 0.007812 v 1.453125 h -3.5625 v -2.902344 h 3.5625 z m 3.945313 7.527344 v 1.453125 h -3.5625 v -2.90625 h 3.5625 z m -8.144532 0.054687 v 1.453126 h -3.5625 v -2.90625 h 3.5625 z m 0 0"/>
</svg>
